<svg xmlns:mydata="http://www.w3.org/2000/svg" mydata:contrastcolor="0085AD" mydata:template="Contrast" mydata:presentation="2.5" mydata:layouttype="undefined" mydata:specialfontid="undefined" mydata:id1="046" mydata:id2="048" mydata:companyname="EL-HATHAT" mydata:companytagline="" version="1.1" xmlns="http://www.w3.org/2000/svg" xmlns:xlink="http://www.w3.org/1999/xlink" viewBox="0 0 550 470" style="background-color: rgb(60, 30, 62); background-image: radial-gradient(circle closest-side, rgba(209, 7, 84, 0.65) 0%, rgba(209, 7, 84, 0.12) 70%, rgb(60, 30, 62) 100%);"><defs style="animation-play-state: running;"><filter id="electric-filter" x="-50%" y="-50%" width="200%" height="200%" style="animation-play-state: running;">
                <feFlood flood-color="#ffffff" result="flood-white" style="animation-play-state: running;"></feFlood>
                <feFlood flood-color="#d10754" result="flood-accent" style="animation-play-state: running;"></feFlood>
                <feComposite operator="out" in="flood-accent" in2="SourceAlpha" result="comp" style="animation-play-state: running;"></feComposite>
                <feGaussianBlur in="comp" result="comp" stdDeviation="0.4" style="animation-play-state: running;"></feGaussianBlur>
                <feComposite operator="in" in="comp" in2="SourceAlpha" result="comp" style="animation-play-state: running;"></feComposite>
                <feComposite operator="in" in="flood-white" in2="SourceAlpha" result="comp2" style="animation-play-state: running;"></feComposite>
                <feGaussianBlur in="comp2" result="comp2" stdDeviation="0.4" style="animation-play-state: running;"></feGaussianBlur>
                <feBlend in="comp" in2="comp2" result="output" mode="screen" style="animation-play-state: running;"></feBlend>
            </filter>
            <filter id="electric-electric" x="-50%" y="-50%" width="200%" height="200%" style="animation-play-state: running;">
                <feTurbulence baseFrequency="0.08" type="fractalNoise" numOctaves="1" seed="1" result="noise" style="animation-play-state: running;"></feTurbulence>
                <feColorMatrix in="noise" result="noise" type="hueRotate" values="90" style="animation-play-state: running;">
                    <animate attributeType="XML" attributeName="values" values="0;180;360" dur="3s" repeatCount="indefinite" style="animation-play-state: running;"></animate>
                </feColorMatrix>
                <feDisplacementMap in="SourceGraphic" xChannelSelector="R" in2="noise" scale="13" result="lines" style="animation-play-state: running;"></feDisplacementMap>
                <feGaussianBlur in="lines" result="output" stdDeviation="10" style="animation-play-state: running;"></feGaussianBlur>
                <feBlend in="lines" in2="output" result="output" mode="screen" style="animation-play-state: running;"></feBlend>
            </filter></defs><g fill="#101820" fill-rule="none" stroke="none" stroke-width="1" stroke-linecap="butt" stroke-linejoin="miter" stroke-miterlimit="10" stroke-dasharray="" stroke-dashoffset="0" font-family="none" font-weight="none" font-size="none" text-anchor="none" style="mix-blend-mode: normal; animation-play-state: running;"><g data-paper-data="{&quot;isGlobalGroup&quot;:true,&quot;bounds&quot;:{&quot;x&quot;:65,&quot;y&quot;:118.87106475479902,&quot;width&quot;:420,&quot;height&quot;:232.25787049040196}}" style="animation-play-state: running;"><g data-paper-data="{&quot;isPrimaryText&quot;:true}" fill-rule="nonzero" style="animation-play-state: running;"><path d="M65,351.12894v-52.45269h35.4226v9.9153h-23.61507v10.29375h20.96594v9.68823h-20.96594v12.64012h25.35592v9.9153z" data-paper-data="{&quot;glyphName&quot;:&quot;E&quot;,&quot;glyphIndex&quot;:0,&quot;firstGlyphOfWord&quot;:true,&quot;word&quot;:1}" style="animation-play-state: running;"></path><path d="M145.91188,340.98657v10.14237h-35.04415v-52.45269h11.80753v42.31033z" data-paper-data="{&quot;glyphName&quot;:&quot;L&quot;,&quot;glyphIndex&quot;:1,&quot;word&quot;:1}" style="animation-play-state: running;"></path><path d="M149.3179,323.42665h21.9499v10.21806h-21.9499z" data-paper-data="{&quot;glyphName&quot;:&quot;-&quot;,&quot;glyphIndex&quot;:2,&quot;word&quot;:1}" style="animation-play-state: running;"></path><path d="M210.85331,298.67624h11.80753v52.45269h-11.80753v-22.25266h-19.8306v22.25266h-11.80753v-52.45269h11.80753v20.05767h19.8306z" data-paper-data="{&quot;glyphName&quot;:&quot;H&quot;,&quot;glyphIndex&quot;:3,&quot;word&quot;:1}" style="animation-play-state: running;"></path><path d="M261.71653,298.67624c2.06884,4.38998 4.09984,8.96918 6.09299,13.73761c1.99315,4.76843 3.898,9.46116 5.71454,14.07821c1.81654,4.61705 3.49432,9.04487 5.03334,13.28347c1.53902,4.2386 2.88881,8.02307 4.04938,11.3534h-13.01856c-1.00919,-3.02757 -2.10669,-6.29483 -3.29249,-9.80177c-1.1858,-3.50694 -2.39683,-7.00126 -3.63309,-10.48297c-1.23626,-3.48171 -2.44729,-6.81204 -3.63309,-9.99099c-1.1858,-3.17895 -2.25806,-5.929 -3.2168,-8.25014c-1.00919,2.32114 -2.10669,5.07118 -3.29249,8.25014c-1.1858,3.17895 -2.38421,6.50928 -3.59524,9.99099c-1.21103,3.48171 -2.40944,6.97603 -3.59524,10.48297c-1.1858,3.50694 -2.28329,6.77419 -3.29249,9.80177h-12.56443c1.11011,-3.33033 2.43467,-7.1148 3.97369,-11.3534c1.53902,-4.2386 3.2168,-8.67904 5.03334,-13.32132c1.81654,-4.64228 3.73401,-9.33502 5.75239,-14.07821c2.01838,-4.7432 4.06199,-9.30979 6.13083,-13.69977z" data-paper-data="{&quot;glyphName&quot;:&quot;Λ&quot;,&quot;glyphIndex&quot;:4,&quot;word&quot;:1}" style="animation-play-state: running;"></path><path d="M328.32312,298.67624v10.06668h-15.81907v42.38602h-11.80753v-42.38602h-15.81907v-10.06668z" data-paper-data="{&quot;glyphName&quot;:&quot;T&quot;,&quot;glyphIndex&quot;:5,&quot;word&quot;:1}" style="animation-play-state: running;"></path><path d="M367.53019,298.67624h11.80753v52.45269h-11.80753v-22.25266h-19.8306v22.25266h-11.80753v-52.45269h11.80753v20.05767h19.8306z" data-paper-data="{&quot;glyphName&quot;:&quot;H&quot;,&quot;glyphIndex&quot;:6,&quot;word&quot;:1}" style="animation-play-state: running;"></path><path d="M418.3934,298.67624c2.06884,4.38998 4.09984,8.96918 6.09299,13.73761c1.99315,4.76843 3.898,9.46116 5.71454,14.07821c1.81654,4.61705 3.49432,9.04487 5.03334,13.28347c1.53902,4.2386 2.88881,8.02307 4.04938,11.3534h-13.01856c-1.00919,-3.02757 -2.10669,-6.29483 -3.29249,-9.80177c-1.1858,-3.50694 -2.39683,-7.00126 -3.63309,-10.48297c-1.23626,-3.48171 -2.44729,-6.81204 -3.63309,-9.99099c-1.1858,-3.17895 -2.25806,-5.929 -3.2168,-8.25014c-1.00919,2.32114 -2.10669,5.07118 -3.29249,8.25014c-1.1858,3.17895 -2.38421,6.50928 -3.59524,9.99099c-1.21103,3.48171 -2.40944,6.97603 -3.59524,10.48297c-1.1858,3.50694 -2.28329,6.77419 -3.29249,9.80177h-12.56443c1.11011,-3.33033 2.43467,-7.1148 3.97369,-11.3534c1.53902,-4.2386 3.2168,-8.67904 5.03334,-13.32132c1.81654,-4.64228 3.73401,-9.33502 5.75239,-14.07821c2.01838,-4.7432 4.06199,-9.30979 6.13083,-13.69977z" data-paper-data="{&quot;glyphName&quot;:&quot;Λ&quot;,&quot;glyphIndex&quot;:7,&quot;word&quot;:1}" style="animation-play-state: running;"></path><path d="M485,298.67624v10.06668h-15.81907v42.38602h-11.80753v-42.38602h-15.81907v-10.06668z" data-paper-data="{&quot;glyphName&quot;:&quot;T&quot;,&quot;glyphIndex&quot;:8,&quot;lastGlyphOfWord&quot;:true,&quot;word&quot;:1}" style="animation-play-state: running;"></path></g><g data-paper-data="{&quot;isIcon&quot;:&quot;true&quot;,&quot;iconType&quot;:&quot;icon&quot;,&quot;rawIconId&quot;:&quot;909cfb2a-d0ed-4c8e-93bd-1aee062ad4f2&quot;,&quot;selectedEffects&quot;:{&quot;container&quot;:&quot;&quot;,&quot;transformation&quot;:&quot;&quot;,&quot;pattern&quot;:&quot;&quot;},&quot;isDetailed&quot;:false,&quot;fillRule&quot;:&quot;evenodd&quot;,&quot;bounds&quot;:{&quot;x&quot;:199.60200569327878,&quot;y&quot;:118.87106475479902,&quot;width&quot;:150.79598861344243,&quot;height&quot;:149.51067146469637},&quot;iconStyle&quot;:&quot;standalone&quot;,&quot;suitableAsStandaloneIcon&quot;:true}" fill-rule="evenodd" style="animation-play-state: running;"><path d="M199.60201,193.6264c0,-41.28583 33.46905,-74.75534 74.75524,-74.75534c17.41114,0 33.43222,5.95196 46.13902,15.93338c-9.6767,-5.38864 -20.82134,-8.45784 -32.68306,-8.45784c-37.1576,0 -67.2798,30.12265 -67.2798,67.2798c0,37.15765 30.1222,67.2798 67.2798,67.2798c11.86172,0 23.00636,-3.0696 32.68306,-8.45764c-12.7068,9.98081 -28.72788,15.93317 -46.13902,15.93317c-41.28618,0 -74.75524,-33.4691 -74.75524,-74.75534zM350.39799,193.6264c0,33.02897 -26.77491,59.80427 -59.80397,59.80427c-13.92897,0 -26.74573,-4.76187 -36.91107,-12.7466c7.74135,4.31051 16.65707,6.76617 26.14632,6.76617c29.72613,0 53.82385,-24.09772 53.82385,-53.82385c0,-29.72613 -24.09772,-53.82425 -53.82385,-53.82425c-9.48925,0 -18.40497,2.45576 -26.14632,6.76686c10.16535,-7.98473 22.9821,-12.7469 36.91107,-12.7469c33.02907,0 59.80397,26.7748 59.80397,59.80427zM294.546,227.60612h-51.48075c2.28536,-2.76649 4.20988,-6.7358 4.81128,-9.86314l8.54003,-48.23313c0.48112,-3.12734 -0.12028,-7.09664 -1.44338,-9.86314h51.96188l-0.72169,17.56119c-5.77354,-5.65326 -18.88429,-8.29946 -29.34884,-8.29946l-3.9693,22.01163c6.25466,-1.44338 12.62962,-4.93156 18.40317,-11.18624l-5.05185,28.14601c-3.48818,-6.25466 -8.54003,-9.74285 -14.31357,-11.30652l-3.84902,21.77107c11.78765,0 27.66489,-8.78059 35.12238,-19.24514z" data-paper-data="{&quot;isPathIcon&quot;:true}" style="animation-play-state: running;"></path></g></g></g><g fill-rule="none" font-family="none" font-weight="none" font-size="none" text-anchor="none" style="mix-blend-mode: normal; animation-play-state: running;" filter="url(#electric-electric)" fill="none" stroke="#d10754" stroke-width="2.5"><g data-paper-data="{&quot;isGlobalGroup&quot;:true,&quot;bounds&quot;:{&quot;x&quot;:65,&quot;y&quot;:118.87106475479902,&quot;width&quot;:420,&quot;height&quot;:232.25787049040196}}" style="animation-play-state: running;"><g data-paper-data="{&quot;isPrimaryText&quot;:true}" fill-rule="nonzero" style="animation-play-state: running;"><path d="M65,351.12894v-52.45269h35.4226v9.9153h-23.61507v10.29375h20.96594v9.68823h-20.96594v12.64012h25.35592v9.9153z" data-paper-data="{&quot;glyphName&quot;:&quot;E&quot;,&quot;glyphIndex&quot;:0,&quot;firstGlyphOfWord&quot;:true,&quot;word&quot;:1}" style="animation-play-state: running;"></path><path d="M145.91188,340.98657v10.14237h-35.04415v-52.45269h11.80753v42.31033z" data-paper-data="{&quot;glyphName&quot;:&quot;L&quot;,&quot;glyphIndex&quot;:1,&quot;word&quot;:1}" style="animation-play-state: running;"></path><path d="M149.3179,323.42665h21.9499v10.21806h-21.9499z" data-paper-data="{&quot;glyphName&quot;:&quot;-&quot;,&quot;glyphIndex&quot;:2,&quot;word&quot;:1}" style="animation-play-state: running;"></path><path d="M210.85331,298.67624h11.80753v52.45269h-11.80753v-22.25266h-19.8306v22.25266h-11.80753v-52.45269h11.80753v20.05767h19.8306z" data-paper-data="{&quot;glyphName&quot;:&quot;H&quot;,&quot;glyphIndex&quot;:3,&quot;word&quot;:1}" style="animation-play-state: running;"></path><path d="M261.71653,298.67624c2.06884,4.38998 4.09984,8.96918 6.09299,13.73761c1.99315,4.76843 3.898,9.46116 5.71454,14.07821c1.81654,4.61705 3.49432,9.04487 5.03334,13.28347c1.53902,4.2386 2.88881,8.02307 4.04938,11.3534h-13.01856c-1.00919,-3.02757 -2.10669,-6.29483 -3.29249,-9.80177c-1.1858,-3.50694 -2.39683,-7.00126 -3.63309,-10.48297c-1.23626,-3.48171 -2.44729,-6.81204 -3.63309,-9.99099c-1.1858,-3.17895 -2.25806,-5.929 -3.2168,-8.25014c-1.00919,2.32114 -2.10669,5.07118 -3.29249,8.25014c-1.1858,3.17895 -2.38421,6.50928 -3.59524,9.99099c-1.21103,3.48171 -2.40944,6.97603 -3.59524,10.48297c-1.1858,3.50694 -2.28329,6.77419 -3.29249,9.80177h-12.56443c1.11011,-3.33033 2.43467,-7.1148 3.97369,-11.3534c1.53902,-4.2386 3.2168,-8.67904 5.03334,-13.32132c1.81654,-4.64228 3.73401,-9.33502 5.75239,-14.07821c2.01838,-4.7432 4.06199,-9.30979 6.13083,-13.69977z" data-paper-data="{&quot;glyphName&quot;:&quot;Λ&quot;,&quot;glyphIndex&quot;:4,&quot;word&quot;:1}" style="animation-play-state: running;"></path><path d="M328.32312,298.67624v10.06668h-15.81907v42.38602h-11.80753v-42.38602h-15.81907v-10.06668z" data-paper-data="{&quot;glyphName&quot;:&quot;T&quot;,&quot;glyphIndex&quot;:5,&quot;word&quot;:1}" style="animation-play-state: running;"></path><path d="M367.53019,298.67624h11.80753v52.45269h-11.80753v-22.25266h-19.8306v22.25266h-11.80753v-52.45269h11.80753v20.05767h19.8306z" data-paper-data="{&quot;glyphName&quot;:&quot;H&quot;,&quot;glyphIndex&quot;:6,&quot;word&quot;:1}" style="animation-play-state: running;"></path><path d="M418.3934,298.67624c2.06884,4.38998 4.09984,8.96918 6.09299,13.73761c1.99315,4.76843 3.898,9.46116 5.71454,14.07821c1.81654,4.61705 3.49432,9.04487 5.03334,13.28347c1.53902,4.2386 2.88881,8.02307 4.04938,11.3534h-13.01856c-1.00919,-3.02757 -2.10669,-6.29483 -3.29249,-9.80177c-1.1858,-3.50694 -2.39683,-7.00126 -3.63309,-10.48297c-1.23626,-3.48171 -2.44729,-6.81204 -3.63309,-9.99099c-1.1858,-3.17895 -2.25806,-5.929 -3.2168,-8.25014c-1.00919,2.32114 -2.10669,5.07118 -3.29249,8.25014c-1.1858,3.17895 -2.38421,6.50928 -3.59524,9.99099c-1.21103,3.48171 -2.40944,6.97603 -3.59524,10.48297c-1.1858,3.50694 -2.28329,6.77419 -3.29249,9.80177h-12.56443c1.11011,-3.33033 2.43467,-7.1148 3.97369,-11.3534c1.53902,-4.2386 3.2168,-8.67904 5.03334,-13.32132c1.81654,-4.64228 3.73401,-9.33502 5.75239,-14.07821c2.01838,-4.7432 4.06199,-9.30979 6.13083,-13.69977z" data-paper-data="{&quot;glyphName&quot;:&quot;Λ&quot;,&quot;glyphIndex&quot;:7,&quot;word&quot;:1}" style="animation-play-state: running;"></path><path d="M485,298.67624v10.06668h-15.81907v42.38602h-11.80753v-42.38602h-15.81907v-10.06668z" data-paper-data="{&quot;glyphName&quot;:&quot;T&quot;,&quot;glyphIndex&quot;:8,&quot;lastGlyphOfWord&quot;:true,&quot;word&quot;:1}" style="animation-play-state: running;"></path></g><g data-paper-data="{&quot;isIcon&quot;:&quot;true&quot;,&quot;iconType&quot;:&quot;icon&quot;,&quot;rawIconId&quot;:&quot;909cfb2a-d0ed-4c8e-93bd-1aee062ad4f2&quot;,&quot;selectedEffects&quot;:{&quot;container&quot;:&quot;&quot;,&quot;transformation&quot;:&quot;&quot;,&quot;pattern&quot;:&quot;&quot;},&quot;isDetailed&quot;:false,&quot;fillRule&quot;:&quot;evenodd&quot;,&quot;bounds&quot;:{&quot;x&quot;:199.60200569327878,&quot;y&quot;:118.87106475479902,&quot;width&quot;:150.79598861344243,&quot;height&quot;:149.51067146469637},&quot;iconStyle&quot;:&quot;standalone&quot;,&quot;suitableAsStandaloneIcon&quot;:true}" fill-rule="evenodd" style="animation-play-state: running;"><path d="M199.60201,193.6264c0,-41.28583 33.46905,-74.75534 74.75524,-74.75534c17.41114,0 33.43222,5.95196 46.13902,15.93338c-9.6767,-5.38864 -20.82134,-8.45784 -32.68306,-8.45784c-37.1576,0 -67.2798,30.12265 -67.2798,67.2798c0,37.15765 30.1222,67.2798 67.2798,67.2798c11.86172,0 23.00636,-3.0696 32.68306,-8.45764c-12.7068,9.98081 -28.72788,15.93317 -46.13902,15.93317c-41.28618,0 -74.75524,-33.4691 -74.75524,-74.75534zM350.39799,193.6264c0,33.02897 -26.77491,59.80427 -59.80397,59.80427c-13.92897,0 -26.74573,-4.76187 -36.91107,-12.7466c7.74135,4.31051 16.65707,6.76617 26.14632,6.76617c29.72613,0 53.82385,-24.09772 53.82385,-53.82385c0,-29.72613 -24.09772,-53.82425 -53.82385,-53.82425c-9.48925,0 -18.40497,2.45576 -26.14632,6.76686c10.16535,-7.98473 22.9821,-12.7469 36.91107,-12.7469c33.02907,0 59.80397,26.7748 59.80397,59.80427zM294.546,227.60612h-51.48075c2.28536,-2.76649 4.20988,-6.7358 4.81128,-9.86314l8.54003,-48.23313c0.48112,-3.12734 -0.12028,-7.09664 -1.44338,-9.86314h51.96188l-0.72169,17.56119c-5.77354,-5.65326 -18.88429,-8.29946 -29.34884,-8.29946l-3.9693,22.01163c6.25466,-1.44338 12.62962,-4.93156 18.40317,-11.18624l-5.05185,28.14601c-3.48818,-6.25466 -8.54003,-9.74285 -14.31357,-11.30652l-3.84902,21.77107c11.78765,0 27.66489,-8.78059 35.12238,-19.24514z" data-paper-data="{&quot;isPathIcon&quot;:true}" style="animation-play-state: running;"></path></g></g></g><g fill-rule="none" font-family="none" font-weight="none" font-size="none" text-anchor="none" style="mix-blend-mode: normal; animation-play-state: running;" filter="url(#electric-electric)" fill="none" stroke="#ffffff" opacity="0.5"><g data-paper-data="{&quot;isGlobalGroup&quot;:true,&quot;bounds&quot;:{&quot;x&quot;:65,&quot;y&quot;:118.87106475479902,&quot;width&quot;:420,&quot;height&quot;:232.25787049040196}}" style="animation-play-state: running;"><g data-paper-data="{&quot;isPrimaryText&quot;:true}" fill-rule="nonzero" style="animation-play-state: running;"><path d="M65,351.12894v-52.45269h35.4226v9.9153h-23.61507v10.29375h20.96594v9.68823h-20.96594v12.64012h25.35592v9.9153z" data-paper-data="{&quot;glyphName&quot;:&quot;E&quot;,&quot;glyphIndex&quot;:0,&quot;firstGlyphOfWord&quot;:true,&quot;word&quot;:1}" style="animation-play-state: running;"></path><path d="M145.91188,340.98657v10.14237h-35.04415v-52.45269h11.80753v42.31033z" data-paper-data="{&quot;glyphName&quot;:&quot;L&quot;,&quot;glyphIndex&quot;:1,&quot;word&quot;:1}" style="animation-play-state: running;"></path><path d="M149.3179,323.42665h21.9499v10.21806h-21.9499z" data-paper-data="{&quot;glyphName&quot;:&quot;-&quot;,&quot;glyphIndex&quot;:2,&quot;word&quot;:1}" style="animation-play-state: running;"></path><path d="M210.85331,298.67624h11.80753v52.45269h-11.80753v-22.25266h-19.8306v22.25266h-11.80753v-52.45269h11.80753v20.05767h19.8306z" data-paper-data="{&quot;glyphName&quot;:&quot;H&quot;,&quot;glyphIndex&quot;:3,&quot;word&quot;:1}" style="animation-play-state: running;"></path><path d="M261.71653,298.67624c2.06884,4.38998 4.09984,8.96918 6.09299,13.73761c1.99315,4.76843 3.898,9.46116 5.71454,14.07821c1.81654,4.61705 3.49432,9.04487 5.03334,13.28347c1.53902,4.2386 2.88881,8.02307 4.04938,11.3534h-13.01856c-1.00919,-3.02757 -2.10669,-6.29483 -3.29249,-9.80177c-1.1858,-3.50694 -2.39683,-7.00126 -3.63309,-10.48297c-1.23626,-3.48171 -2.44729,-6.81204 -3.63309,-9.99099c-1.1858,-3.17895 -2.25806,-5.929 -3.2168,-8.25014c-1.00919,2.32114 -2.10669,5.07118 -3.29249,8.25014c-1.1858,3.17895 -2.38421,6.50928 -3.59524,9.99099c-1.21103,3.48171 -2.40944,6.97603 -3.59524,10.48297c-1.1858,3.50694 -2.28329,6.77419 -3.29249,9.80177h-12.56443c1.11011,-3.33033 2.43467,-7.1148 3.97369,-11.3534c1.53902,-4.2386 3.2168,-8.67904 5.03334,-13.32132c1.81654,-4.64228 3.73401,-9.33502 5.75239,-14.07821c2.01838,-4.7432 4.06199,-9.30979 6.13083,-13.69977z" data-paper-data="{&quot;glyphName&quot;:&quot;Λ&quot;,&quot;glyphIndex&quot;:4,&quot;word&quot;:1}" style="animation-play-state: running;"></path><path d="M328.32312,298.67624v10.06668h-15.81907v42.38602h-11.80753v-42.38602h-15.81907v-10.06668z" data-paper-data="{&quot;glyphName&quot;:&quot;T&quot;,&quot;glyphIndex&quot;:5,&quot;word&quot;:1}" style="animation-play-state: running;"></path><path d="M367.53019,298.67624h11.80753v52.45269h-11.80753v-22.25266h-19.8306v22.25266h-11.80753v-52.45269h11.80753v20.05767h19.8306z" data-paper-data="{&quot;glyphName&quot;:&quot;H&quot;,&quot;glyphIndex&quot;:6,&quot;word&quot;:1}" style="animation-play-state: running;"></path><path d="M418.3934,298.67624c2.06884,4.38998 4.09984,8.96918 6.09299,13.73761c1.99315,4.76843 3.898,9.46116 5.71454,14.07821c1.81654,4.61705 3.49432,9.04487 5.03334,13.28347c1.53902,4.2386 2.88881,8.02307 4.04938,11.3534h-13.01856c-1.00919,-3.02757 -2.10669,-6.29483 -3.29249,-9.80177c-1.1858,-3.50694 -2.39683,-7.00126 -3.63309,-10.48297c-1.23626,-3.48171 -2.44729,-6.81204 -3.63309,-9.99099c-1.1858,-3.17895 -2.25806,-5.929 -3.2168,-8.25014c-1.00919,2.32114 -2.10669,5.07118 -3.29249,8.25014c-1.1858,3.17895 -2.38421,6.50928 -3.59524,9.99099c-1.21103,3.48171 -2.40944,6.97603 -3.59524,10.48297c-1.1858,3.50694 -2.28329,6.77419 -3.29249,9.80177h-12.56443c1.11011,-3.33033 2.43467,-7.1148 3.97369,-11.3534c1.53902,-4.2386 3.2168,-8.67904 5.03334,-13.32132c1.81654,-4.64228 3.73401,-9.33502 5.75239,-14.07821c2.01838,-4.7432 4.06199,-9.30979 6.13083,-13.69977z" data-paper-data="{&quot;glyphName&quot;:&quot;Λ&quot;,&quot;glyphIndex&quot;:7,&quot;word&quot;:1}" style="animation-play-state: running;"></path><path d="M485,298.67624v10.06668h-15.81907v42.38602h-11.80753v-42.38602h-15.81907v-10.06668z" data-paper-data="{&quot;glyphName&quot;:&quot;T&quot;,&quot;glyphIndex&quot;:8,&quot;lastGlyphOfWord&quot;:true,&quot;word&quot;:1}" style="animation-play-state: running;"></path></g><g data-paper-data="{&quot;isIcon&quot;:&quot;true&quot;,&quot;iconType&quot;:&quot;icon&quot;,&quot;rawIconId&quot;:&quot;909cfb2a-d0ed-4c8e-93bd-1aee062ad4f2&quot;,&quot;selectedEffects&quot;:{&quot;container&quot;:&quot;&quot;,&quot;transformation&quot;:&quot;&quot;,&quot;pattern&quot;:&quot;&quot;},&quot;isDetailed&quot;:false,&quot;fillRule&quot;:&quot;evenodd&quot;,&quot;bounds&quot;:{&quot;x&quot;:199.60200569327878,&quot;y&quot;:118.87106475479902,&quot;width&quot;:150.79598861344243,&quot;height&quot;:149.51067146469637},&quot;iconStyle&quot;:&quot;standalone&quot;,&quot;suitableAsStandaloneIcon&quot;:true}" fill-rule="evenodd" style="animation-play-state: running;"><path d="M199.60201,193.6264c0,-41.28583 33.46905,-74.75534 74.75524,-74.75534c17.41114,0 33.43222,5.95196 46.13902,15.93338c-9.6767,-5.38864 -20.82134,-8.45784 -32.68306,-8.45784c-37.1576,0 -67.2798,30.12265 -67.2798,67.2798c0,37.15765 30.1222,67.2798 67.2798,67.2798c11.86172,0 23.00636,-3.0696 32.68306,-8.45764c-12.7068,9.98081 -28.72788,15.93317 -46.13902,15.93317c-41.28618,0 -74.75524,-33.4691 -74.75524,-74.75534zM350.39799,193.6264c0,33.02897 -26.77491,59.80427 -59.80397,59.80427c-13.92897,0 -26.74573,-4.76187 -36.91107,-12.7466c7.74135,4.31051 16.65707,6.76617 26.14632,6.76617c29.72613,0 53.82385,-24.09772 53.82385,-53.82385c0,-29.72613 -24.09772,-53.82425 -53.82385,-53.82425c-9.48925,0 -18.40497,2.45576 -26.14632,6.76686c10.16535,-7.98473 22.9821,-12.7469 36.91107,-12.7469c33.02907,0 59.80397,26.7748 59.80397,59.80427zM294.546,227.60612h-51.48075c2.28536,-2.76649 4.20988,-6.7358 4.81128,-9.86314l8.54003,-48.23313c0.48112,-3.12734 -0.12028,-7.09664 -1.44338,-9.86314h51.96188l-0.72169,17.56119c-5.77354,-5.65326 -18.88429,-8.29946 -29.34884,-8.29946l-3.9693,22.01163c6.25466,-1.44338 12.62962,-4.93156 18.40317,-11.18624l-5.05185,28.14601c-3.48818,-6.25466 -8.54003,-9.74285 -14.31357,-11.30652l-3.84902,21.77107c11.78765,0 27.66489,-8.78059 35.12238,-19.24514z" data-paper-data="{&quot;isPathIcon&quot;:true}" style="animation-play-state: running;"></path></g></g></g><g fill-rule="none" font-family="none" font-weight="none" font-size="none" text-anchor="none" style="mix-blend-mode: normal; animation-play-state: running;" filter="url(#electric-filter)" fill="#ffffff" stroke="none"><g data-paper-data="{&quot;isGlobalGroup&quot;:true,&quot;bounds&quot;:{&quot;x&quot;:65,&quot;y&quot;:118.87106475479902,&quot;width&quot;:420,&quot;height&quot;:232.25787049040196}}" style="animation-play-state: running;"><g data-paper-data="{&quot;isPrimaryText&quot;:true}" fill-rule="nonzero" style="animation-play-state: running;"><path d="M65,351.12894v-52.45269h35.4226v9.9153h-23.61507v10.29375h20.96594v9.68823h-20.96594v12.64012h25.35592v9.9153z" data-paper-data="{&quot;glyphName&quot;:&quot;E&quot;,&quot;glyphIndex&quot;:0,&quot;firstGlyphOfWord&quot;:true,&quot;word&quot;:1}" style="animation-play-state: running;"></path><path d="M145.91188,340.98657v10.14237h-35.04415v-52.45269h11.80753v42.31033z" data-paper-data="{&quot;glyphName&quot;:&quot;L&quot;,&quot;glyphIndex&quot;:1,&quot;word&quot;:1}" style="animation-play-state: running;"></path><path d="M149.3179,323.42665h21.9499v10.21806h-21.9499z" data-paper-data="{&quot;glyphName&quot;:&quot;-&quot;,&quot;glyphIndex&quot;:2,&quot;word&quot;:1}" style="animation-play-state: running;"></path><path d="M210.85331,298.67624h11.80753v52.45269h-11.80753v-22.25266h-19.8306v22.25266h-11.80753v-52.45269h11.80753v20.05767h19.8306z" data-paper-data="{&quot;glyphName&quot;:&quot;H&quot;,&quot;glyphIndex&quot;:3,&quot;word&quot;:1}" style="animation-play-state: running;"></path><path d="M261.71653,298.67624c2.06884,4.38998 4.09984,8.96918 6.09299,13.73761c1.99315,4.76843 3.898,9.46116 5.71454,14.07821c1.81654,4.61705 3.49432,9.04487 5.03334,13.28347c1.53902,4.2386 2.88881,8.02307 4.04938,11.3534h-13.01856c-1.00919,-3.02757 -2.10669,-6.29483 -3.29249,-9.80177c-1.1858,-3.50694 -2.39683,-7.00126 -3.63309,-10.48297c-1.23626,-3.48171 -2.44729,-6.81204 -3.63309,-9.99099c-1.1858,-3.17895 -2.25806,-5.929 -3.2168,-8.25014c-1.00919,2.32114 -2.10669,5.07118 -3.29249,8.25014c-1.1858,3.17895 -2.38421,6.50928 -3.59524,9.99099c-1.21103,3.48171 -2.40944,6.97603 -3.59524,10.48297c-1.1858,3.50694 -2.28329,6.77419 -3.29249,9.80177h-12.56443c1.11011,-3.33033 2.43467,-7.1148 3.97369,-11.3534c1.53902,-4.2386 3.2168,-8.67904 5.03334,-13.32132c1.81654,-4.64228 3.73401,-9.33502 5.75239,-14.07821c2.01838,-4.7432 4.06199,-9.30979 6.13083,-13.69977z" data-paper-data="{&quot;glyphName&quot;:&quot;Λ&quot;,&quot;glyphIndex&quot;:4,&quot;word&quot;:1}" style="animation-play-state: running;"></path><path d="M328.32312,298.67624v10.06668h-15.81907v42.38602h-11.80753v-42.38602h-15.81907v-10.06668z" data-paper-data="{&quot;glyphName&quot;:&quot;T&quot;,&quot;glyphIndex&quot;:5,&quot;word&quot;:1}" style="animation-play-state: running;"></path><path d="M367.53019,298.67624h11.80753v52.45269h-11.80753v-22.25266h-19.8306v22.25266h-11.80753v-52.45269h11.80753v20.05767h19.8306z" data-paper-data="{&quot;glyphName&quot;:&quot;H&quot;,&quot;glyphIndex&quot;:6,&quot;word&quot;:1}" style="animation-play-state: running;"></path><path d="M418.3934,298.67624c2.06884,4.38998 4.09984,8.96918 6.09299,13.73761c1.99315,4.76843 3.898,9.46116 5.71454,14.07821c1.81654,4.61705 3.49432,9.04487 5.03334,13.28347c1.53902,4.2386 2.88881,8.02307 4.04938,11.3534h-13.01856c-1.00919,-3.02757 -2.10669,-6.29483 -3.29249,-9.80177c-1.1858,-3.50694 -2.39683,-7.00126 -3.63309,-10.48297c-1.23626,-3.48171 -2.44729,-6.81204 -3.63309,-9.99099c-1.1858,-3.17895 -2.25806,-5.929 -3.2168,-8.25014c-1.00919,2.32114 -2.10669,5.07118 -3.29249,8.25014c-1.1858,3.17895 -2.38421,6.50928 -3.59524,9.99099c-1.21103,3.48171 -2.40944,6.97603 -3.59524,10.48297c-1.1858,3.50694 -2.28329,6.77419 -3.29249,9.80177h-12.56443c1.11011,-3.33033 2.43467,-7.1148 3.97369,-11.3534c1.53902,-4.2386 3.2168,-8.67904 5.03334,-13.32132c1.81654,-4.64228 3.73401,-9.33502 5.75239,-14.07821c2.01838,-4.7432 4.06199,-9.30979 6.13083,-13.69977z" data-paper-data="{&quot;glyphName&quot;:&quot;Λ&quot;,&quot;glyphIndex&quot;:7,&quot;word&quot;:1}" style="animation-play-state: running;"></path><path d="M485,298.67624v10.06668h-15.81907v42.38602h-11.80753v-42.38602h-15.81907v-10.06668z" data-paper-data="{&quot;glyphName&quot;:&quot;T&quot;,&quot;glyphIndex&quot;:8,&quot;lastGlyphOfWord&quot;:true,&quot;word&quot;:1}" style="animation-play-state: running;"></path></g><g data-paper-data="{&quot;isIcon&quot;:&quot;true&quot;,&quot;iconType&quot;:&quot;icon&quot;,&quot;rawIconId&quot;:&quot;909cfb2a-d0ed-4c8e-93bd-1aee062ad4f2&quot;,&quot;selectedEffects&quot;:{&quot;container&quot;:&quot;&quot;,&quot;transformation&quot;:&quot;&quot;,&quot;pattern&quot;:&quot;&quot;},&quot;isDetailed&quot;:false,&quot;fillRule&quot;:&quot;evenodd&quot;,&quot;bounds&quot;:{&quot;x&quot;:199.60200569327878,&quot;y&quot;:118.87106475479902,&quot;width&quot;:150.79598861344243,&quot;height&quot;:149.51067146469637},&quot;iconStyle&quot;:&quot;standalone&quot;,&quot;suitableAsStandaloneIcon&quot;:true}" fill-rule="evenodd" style="animation-play-state: running;"><path d="M199.60201,193.6264c0,-41.28583 33.46905,-74.75534 74.75524,-74.75534c17.41114,0 33.43222,5.95196 46.13902,15.93338c-9.6767,-5.38864 -20.82134,-8.45784 -32.68306,-8.45784c-37.1576,0 -67.2798,30.12265 -67.2798,67.2798c0,37.15765 30.1222,67.2798 67.2798,67.2798c11.86172,0 23.00636,-3.0696 32.68306,-8.45764c-12.7068,9.98081 -28.72788,15.93317 -46.13902,15.93317c-41.28618,0 -74.75524,-33.4691 -74.75524,-74.75534zM350.39799,193.6264c0,33.02897 -26.77491,59.80427 -59.80397,59.80427c-13.92897,0 -26.74573,-4.76187 -36.91107,-12.7466c7.74135,4.31051 16.65707,6.76617 26.14632,6.76617c29.72613,0 53.82385,-24.09772 53.82385,-53.82385c0,-29.72613 -24.09772,-53.82425 -53.82385,-53.82425c-9.48925,0 -18.40497,2.45576 -26.14632,6.76686c10.16535,-7.98473 22.9821,-12.7469 36.91107,-12.7469c33.02907,0 59.80397,26.7748 59.80397,59.80427zM294.546,227.60612h-51.48075c2.28536,-2.76649 4.20988,-6.7358 4.81128,-9.86314l8.54003,-48.23313c0.48112,-3.12734 -0.12028,-7.09664 -1.44338,-9.86314h51.96188l-0.72169,17.56119c-5.77354,-5.65326 -18.88429,-8.29946 -29.34884,-8.29946l-3.9693,22.01163c6.25466,-1.44338 12.62962,-4.93156 18.40317,-11.18624l-5.05185,28.14601c-3.48818,-6.25466 -8.54003,-9.74285 -14.31357,-11.30652l-3.84902,21.77107c11.78765,0 27.66489,-8.78059 35.12238,-19.24514z" data-paper-data="{&quot;isPathIcon&quot;:true}" style="animation-play-state: running;"></path></g></g></g></svg>